<svg xmlns="http://www.w3.org/2000/svg" fill="none" viewBox="0 0 190 38"><g clip-path="url(#a)"><path fill="#FDC305" d="M6.01 20.93v-2.28a139.13 139.13 0 0 1 19.98-1.34c0 .6 0 1.22-.06 1.83a24.9 24.9 0 0 1 5.94-1.83 16.77 16.77 0 0 0-6.77-8.29 16.25 16.25 0 0 0-10.3-2.4c-3.6.38-6.98 1.95-9.62 4.47a16.95 16.95 0 0 0-5 9.51l5.83.33Zm20.97 3.55c-1.15 1.3-1.38 1.21-1.38 3.49v9.27a16.7 16.7 0 0 0 5.43-6.05 17.08 17.08 0 0 0 1.97-7.95 17.9 17.9 0 0 0-.32-3.14 32.86 32.86 0 0 0-5.7 4.38Zm-20.68 1.5s-3.76-1.45-5.14-1.84a8.33 8.33 0 0 0-1.16-.28 17.07 17.07 0 0 0 2.46 8.23 16.63 16.63 0 0 0 6.14 5.91l-2.3-12.01Z"/><path fill="#F06351" d="M26.04 17.3a92.52 92.52 0 0 0-1.39-16.64s-.14-1.3-.88-.25a14.58 14.58 0 0 0-1.19 3.98 68.3 68.3 0 0 0-12.65.35c-.78-2.72-2.16-3.98-2.82-3.73-.66.25-.71 3.34-.71 3.34l-.33 14.25a139.1 139.1 0 0 1 19.97-1.3Z"/><path fill="#000" d="M12.29 14.14c0-.09 1 .7 1.4.93.4.25.6.43.6.6s-.27.34-.62.34c-.36 0-.9-.12-1-.27h1.22a8.34 8.34 0 0 1-1.6-1.6Zm7.4.12-1.07 1.34c0 .06-.17.35.18.3a7.1 7.1 0 0 0 1.2-.29c.11 0 .08-.2-.1-.17-.18.02-.69.05-1 .11l.84-1.27s.07-.13-.04-.02Zm-3.1 6.15c.46-.2.84-.56 1.08-1.01.28-.66 0-.92-.44-1.01a2.37 2.37 0 0 0-1.72.34c-.39.37-.34.73-.05 1.01.35.27.73.5 1.13.67Z"/><path fill="#F06351" d="M16.2 21.67c-.12.23-.27.44-.46.6a1.7 1.7 0 0 1-1 .4 2.1 2.1 0 0 1-1.45-.44 2.29 2.29 0 0 1-.52-.45 1.06 1.06 0 0 0-.36-.26s.74 4.14 2.55 4.8c1.8.66 2.12-.76 2.17-1.14a5.76 5.76 0 0 0-.8-3.26c-.03-.32-.04-.12-.14-.25Z"/><path fill="#000" d="M14.57 22.82a3.36 3.36 0 0 1-1.3-.47 3.44 3.44 0 0 1-1.04-1 .14.14 0 0 1 .08-.2.14.14 0 0 1 .15.04 3.22 3.22 0 0 0 2.09 1.31 2.04 2.04 0 0 0 1.61-1l.14-.2.1.21s.37.77 1 .8c.61.05 1.03-.4 1.59-1.28a.14.14 0 0 1 .2 0c.03.02.05.05.06.09a.15.15 0 0 1-.02.1c-.63 1.02-1.25 1.46-1.86 1.42a1.52 1.52 0 0 1-.64-.25 1.55 1.55 0 0 1-.47-.52 2.25 2.25 0 0 1-.74.67c-.3.17-.62.26-.95.28Z"/><path fill="#F06351" d="M25.99 19.12a58.7 58.7 0 0 0-5.02 5.24 31.58 31.58 0 0 1-5.24 4.94c-.22-.54-1.6-1.52-1.6-1.52s-3.1-2.17-5.14-3.86a34.1 34.1 0 0 1-3.1-3.03l-1.98-.12a22.37 22.37 0 0 0 11.89 8.9c.85-.15 3.23-1.88 5.02-3.3a58.15 58.15 0 0 0 5.88-5.95c.5-.6.88-1.28 1.13-2.02-1.09.4-1.84.72-1.84.72Z"/></g><g fill="#111" clip-path="url(#b)"><path d="M90.26 26.54a6.87 6.87 0 0 1-1.26-4.3v-6.4a6.95 6.95 0 0 1 1.19-4.38c.87-1 2.2-1.46 4.18-1.46 1.98 0 3.24.46 4.03 1.3a5.42 5.42 0 0 1 1.19 3.78v1.54h-3.87v-1.77a3.7 3.7 0 0 0-.24-1.54 1.12 1.12 0 0 0-.46-.47 1.16 1.16 0 0 0-.65-.15c-.55 0-.94.16-1.1.54a4.85 4.85 0 0 0-.24 1.7v8.22a3.11 3.11 0 0 0 .32 1.62c.16.38.55.54 1.1.54s.87-.16 1.03-.54c.18-.52.26-1.07.24-1.62v-1.84h3.87v1.54a5.78 5.78 0 0 1-1.19 3.84c-.79.92-2.13 1.39-4.03 1.39-1.9-.08-3.32-.54-4.1-1.54Zm14-16.31h4.5l3.32 17.54h-3.64l-.63-3.7h-2.6l-.64 3.7h-3.72l3.4-17.54Zm3.23 11.54-.94-6.85-.95 6.85h1.9Zm7.35-8.62h-2.68v-2.92h9.4v2.85h-2.69v14.69h-4.03v-14.62Zm13.91-2.92h6.96v1.85h-4.5v5.77h3.63v1.76h-3.64v6.47h4.5v1.77h-7.03v-17.62h.08Zm9.01 0h1.74l5.14 11.62v-11.62h2.05v17.54h-1.58l-5.21-12v12h-2.14v-17.54Zm11.3 0h6.96v1.85h-4.5v5.77h3.63v1.76h-3.64v6.47h4.5v1.77h-6.95v-17.62Zm9.01 0h3.64a6.45 6.45 0 0 1 4.03 1.08c.87.69 1.26 1.92 1.26 3.54 0 2.23-.7 3.61-2.21 4.07l2.53 8.77h-2.45l-2.37-8.23h-1.98v8.23h-2.53v-17.46h.08Zm3.48 7.54a3.52 3.52 0 0 0 2.3-.62c.47-.38.7-1.15.7-2.3a4.84 4.84 0 0 0-.23-1.7 1.98 1.98 0 0 0-.87-.92 3.69 3.69 0 0 0-1.74-.3h-1.1v5.76h.94v.08Zm8.61 8.7a7.6 7.6 0 0 1-1.1-4.47v-5.85a12.3 12.3 0 0 1 .4-3.3 3.92 3.92 0 0 1 1.5-2 5.27 5.27 0 0 1 2.92-.7c1.66 0 2.84.39 3.55 1.23a5.77 5.77 0 0 1 1.11 3.85v.62h-2.37v-.54c0-.65-.05-1.29-.16-1.93a1.53 1.53 0 0 0-.63-1 2.5 2.5 0 0 0-1.5-.38 2.42 2.42 0 0 0-1.58.46 1.73 1.73 0 0 0-.63 1.23 14.02 14.02 0 0 0-.16 2.08v6.54a6.82 6.82 0 0 0 .47 2.92c.32.62.95.85 1.9.85a1.9 1.9 0 0 0 1.9-.92 6.92 6.92 0 0 0 .55-3.08v-1.23h-2.3v-1.77h4.59v8.69h-1.58l-.24-2a3.14 3.14 0 0 1-1.22 1.66 3.29 3.29 0 0 1-2.02.57 4.05 4.05 0 0 1-1.9-.35 3.93 3.93 0 0 1-1.5-1.19Zm13.52-4.86-3.88-11.3h2.38l2.76 8.46 2.69-8.46h2.37l-3.87 11.3v6.16h-2.37v-6.16h-.08Z"/></g><defs><clipPath id="a"><path fill="#fff" d="M0 0h33v38h-33z"/></clipPath><clipPath id="b"><path fill="#fff" d="M89 10h101v18h-101z"/></clipPath></defs></svg>